<svg width="327" height="225" viewBox="0 0 327 225" fill="none" xmlns="http://www.w3.org/2000/svg">
<g filter="url(#filter0_i_1_242)">
<rect x="0.0471191" width="326" height="223" rx="20" fill="url(#paint0_linear_1_242)"/>
<g filter="url(#filter1_ddd_1_242)">
<path fill-rule="evenodd" clip-rule="evenodd" d="M27.166 20.1663L57.2116 20C60.6932 20 64.0471 22.5076 64.0471 26.6415V57.3304C64.0471 60.7769 61.0478 63.5256 58.3402 63.8047C58.1542 63.8239 57.3937 63.8047 57.2116 63.8047L27.166 64C21.8743 64 20.0471 60.7748 20.0471 56.0826V26.6415C20.0471 22.0429 22.7037 20.1663 27.166 20.1663Z" fill="url(#paint1_linear_1_242)" fill-opacity="0.5" shape-rendering="crispEdges"/>
</g>
<mask id="mask0_1_242" style="mask-type:alpha" maskUnits="userSpaceOnUse" x="20" y="20" width="45" height="44">
<path fill-rule="evenodd" clip-rule="evenodd" d="M27.166 20.1663L57.2116 20C60.6932 20 64.0471 22.5076 64.0471 26.6415V57.3304C64.0471 60.7769 61.0478 63.5256 58.3402 63.8047C58.1542 63.8239 57.3937 63.8047 57.2116 63.8047L27.166 64C21.8743 64 20.0471 60.7748 20.0471 56.0826V26.6415C20.0471 22.0429 22.7037 20.1663 27.166 20.1663Z" fill="white"/>
</mask>
<g mask="url(#mask0_1_242)">
<path d="M27.4702 21.6825L27.4741 21.6825L57.0449 21.5262C57.0455 21.5262 57.0462 21.5262 57.0468 21.5262C60.0189 21.5272 62.7777 23.627 62.7777 27.0152V57.0441C62.7777 58.4375 62.1651 59.7143 61.2415 60.6834C60.3115 61.6593 59.1168 62.2699 58.0391 62.3799C58.0401 62.3798 58.0401 62.3798 58.0389 62.3799C58.0356 62.3801 58.0238 62.3809 58.0007 62.3816C57.9721 62.3826 57.9353 62.3833 57.8912 62.3837C57.8031 62.3844 57.6965 62.3839 57.5862 62.3828C57.4908 62.3819 57.3873 62.3803 57.2947 62.379C57.1863 62.3774 57.0929 62.376 57.0449 62.376L57.0402 62.376L27.4702 62.5595C27.4695 62.5595 27.4687 62.5595 27.468 62.5595C25.1171 62.5591 23.6745 61.8564 22.795 60.7714C21.8902 59.6551 21.4686 57.9984 21.4686 55.8719V27.0152C21.4686 25.0038 22.0495 23.7238 22.9919 22.9264C23.9586 22.1083 25.4395 21.6825 27.4702 21.6825Z" fill="url(#paint2_linear_1_242)"/>
<path d="M27.4702 21.6825L27.4741 21.6825L57.0449 21.5262C57.0455 21.5262 57.0462 21.5262 57.0468 21.5262C60.0189 21.5272 62.7777 23.627 62.7777 27.0152V57.0441C62.7777 58.4375 62.1651 59.7143 61.2415 60.6834C60.3115 61.6593 59.1168 62.2699 58.0391 62.3799C58.0401 62.3798 58.0401 62.3798 58.0389 62.3799C58.0356 62.3801 58.0238 62.3809 58.0007 62.3816C57.9721 62.3826 57.9353 62.3833 57.8912 62.3837C57.8031 62.3844 57.6965 62.3839 57.5862 62.3828C57.4908 62.3819 57.3873 62.3803 57.2947 62.379C57.1863 62.3774 57.0929 62.376 57.0449 62.376L57.0402 62.376L27.4702 62.5595C27.4695 62.5595 27.4687 62.5595 27.468 62.5595C25.1171 62.5591 23.6745 61.8564 22.795 60.7714C21.8902 59.6551 21.4686 57.9984 21.4686 55.8719V27.0152C21.4686 25.0038 22.0495 23.7238 22.9919 22.9264C23.9586 22.1083 25.4395 21.6825 27.4702 21.6825Z" stroke="url(#paint3_linear_1_242)" stroke-width="1.5" style="mix-blend-mode:overlay"/>
<g opacity="0.158808" filter="url(#filter2_f_1_242)">
<path fill-rule="evenodd" clip-rule="evenodd" d="M41.2453 82.5962C52.5817 82.5962 67.2075 76.6492 67.2075 69.3132C67.2075 61.9772 52.5817 56.0303 41.2453 56.0303C29.9089 56.0303 16.1985 61.9772 16.1985 69.3132C16.1985 76.6492 29.9089 82.5962 41.2453 82.5962Z" fill="#5D5D5D"/>
</g>
<path d="M40.1072 46.9253L42.2433 39.3452L44.3669 46.9253H45.6761L48.0941 37.7831H46.7285L44.9933 45.2201L42.9136 37.7831H41.5605L39.4808 45.2201L37.7456 37.7831H36.3926L38.798 46.9253H40.1072Z" fill="#7A7B80"/>
</g>
<path d="M84.7957 37.7422V36.1364H94.3642V37.7422H90.5066V48.5H88.6473V37.7422H84.7957ZM98.895 48.6871C98.0256 48.6871 97.267 48.4879 96.619 48.0895C95.9711 47.6911 95.468 47.1336 95.1098 46.4173C94.7516 45.7009 94.5725 44.8638 94.5725 43.9059C94.5725 42.944 94.7516 42.1029 95.1098 41.3825C95.468 40.662 95.9711 40.1026 96.619 39.7042C97.267 39.3058 98.0256 39.1065 98.895 39.1065C99.7643 39.1065 100.523 39.3058 101.171 39.7042C101.819 40.1026 102.322 40.662 102.68 41.3825C103.038 42.1029 103.217 42.944 103.217 43.9059C103.217 44.8638 103.038 45.7009 102.68 46.4173C102.322 47.1336 101.819 47.6911 101.171 48.0895C100.523 48.4879 99.7643 48.6871 98.895 48.6871ZM98.901 47.1719C99.4644 47.1719 99.9313 47.023 100.302 46.7251C100.672 46.4273 100.945 46.0309 101.123 45.5359C101.304 45.0408 101.394 44.4955 101.394 43.8999C101.394 43.3082 101.304 42.7649 101.123 42.2699C100.945 41.7708 100.672 41.3704 100.302 41.0685C99.9313 40.7667 99.4644 40.6158 98.901 40.6158C98.3335 40.6158 97.8626 40.7667 97.4883 41.0685C97.1181 41.3704 96.8424 41.7708 96.6613 42.2699C96.4842 42.7649 96.3957 43.3082 96.3957 43.8999C96.3957 44.4955 96.4842 45.0408 96.6613 45.5359C96.8424 46.0309 97.1181 46.4273 97.4883 46.7251C97.8626 47.023 98.3335 47.1719 98.901 47.1719ZM105.232 51.9773V39.2273H106.995V40.7305H107.146C107.251 40.5373 107.401 40.3139 107.599 40.0604C107.796 39.8068 108.07 39.5855 108.42 39.3963C108.77 39.2031 109.233 39.1065 109.808 39.1065C110.557 39.1065 111.225 39.2957 111.812 39.674C112.4 40.0523 112.861 40.5977 113.195 41.31C113.533 42.0224 113.702 42.8796 113.702 43.8817C113.702 44.8839 113.535 45.7431 113.201 46.4595C112.867 47.1719 112.408 47.7212 111.825 48.1076C111.241 48.4899 110.575 48.6811 109.826 48.6811C109.263 48.6811 108.802 48.5865 108.444 48.3974C108.09 48.2082 107.812 47.9869 107.611 47.7333C107.41 47.4798 107.255 47.2544 107.146 47.0572H107.037V51.9773H105.232ZM107.001 43.8636C107.001 44.5156 107.096 45.0871 107.285 45.5781C107.474 46.0691 107.748 46.4535 108.106 46.7312C108.464 47.0049 108.903 47.1417 109.422 47.1417C109.961 47.1417 110.412 46.9988 110.774 46.7131C111.136 46.4233 111.41 46.0309 111.595 45.5359C111.784 45.0408 111.879 44.4834 111.879 43.8636C111.879 43.2519 111.786 42.7025 111.601 42.2156C111.42 41.7286 111.146 41.3442 110.78 41.0625C110.418 40.7808 109.965 40.6399 109.422 40.6399C108.899 40.6399 108.456 40.7747 108.094 41.0444C107.736 41.314 107.464 41.6903 107.279 42.1733C107.094 42.6562 107.001 43.2197 107.001 43.8636Z" fill="white" fill-opacity="0.6"/>
<g filter="url(#filter3_ddd_1_242)">
<path fill-rule="evenodd" clip-rule="evenodd" d="M27.166 83.1663L57.2116 83C60.6932 83 64.0471 85.5076 64.0471 89.6415V120.33C64.0471 123.777 61.0478 126.526 58.3402 126.805C58.1542 126.824 57.3937 126.805 57.2116 126.805L27.166 127C21.8743 127 20.0471 123.775 20.0471 119.083V89.6415C20.0471 85.0429 22.7037 83.1663 27.166 83.1663Z" fill="url(#paint4_linear_1_242)" fill-opacity="0.5" shape-rendering="crispEdges"/>
</g>
<mask id="mask1_1_242" style="mask-type:alpha" maskUnits="userSpaceOnUse" x="20" y="83" width="45" height="44">
<path fill-rule="evenodd" clip-rule="evenodd" d="M27.166 83.1663L57.2116 83C60.6932 83 64.0471 85.5076 64.0471 89.6415V120.33C64.0471 123.777 61.0478 126.526 58.3402 126.805C58.1542 126.824 57.3937 126.805 57.2116 126.805L27.166 127C21.8743 127 20.0471 123.775 20.0471 119.083V89.6415C20.0471 85.0429 22.7037 83.1663 27.166 83.1663Z" fill="white"/>
</mask>
<g mask="url(#mask1_1_242)">
<path d="M27.4702 84.6825L27.4741 84.6825L57.0449 84.5262C57.0455 84.5262 57.0462 84.5262 57.0468 84.5262C60.0189 84.5272 62.7777 86.627 62.7777 90.0152V120.044C62.7777 121.438 62.1651 122.714 61.2415 123.683C60.3115 124.659 59.1168 125.27 58.0391 125.38C58.0401 125.38 58.0401 125.38 58.0389 125.38C58.0356 125.38 58.0238 125.381 58.0007 125.382C57.9721 125.383 57.9353 125.383 57.8912 125.384C57.8031 125.384 57.6965 125.384 57.5862 125.383C57.4908 125.382 57.3873 125.38 57.2947 125.379C57.1863 125.377 57.0929 125.376 57.0449 125.376L57.0402 125.376L27.4702 125.559C27.4695 125.559 27.4687 125.559 27.468 125.559C25.1171 125.559 23.6745 124.856 22.795 123.771C21.8902 122.655 21.4686 120.998 21.4686 118.872V90.0152C21.4686 88.0038 22.0495 86.7238 22.9919 85.9264C23.9586 85.1083 25.4395 84.6825 27.4702 84.6825Z" fill="url(#paint5_linear_1_242)"/>
<path d="M27.4702 84.6825L27.4741 84.6825L57.0449 84.5262C57.0455 84.5262 57.0462 84.5262 57.0468 84.5262C60.0189 84.5272 62.7777 86.627 62.7777 90.0152V120.044C62.7777 121.438 62.1651 122.714 61.2415 123.683C60.3115 124.659 59.1168 125.27 58.0391 125.38C58.0401 125.38 58.0401 125.38 58.0389 125.38C58.0356 125.38 58.0238 125.381 58.0007 125.382C57.9721 125.383 57.9353 125.383 57.8912 125.384C57.8031 125.384 57.6965 125.384 57.5862 125.383C57.4908 125.382 57.3873 125.38 57.2947 125.379C57.1863 125.377 57.0929 125.376 57.0449 125.376L57.0402 125.376L27.4702 125.559C27.4695 125.559 27.4687 125.559 27.468 125.559C25.1171 125.559 23.6745 124.856 22.795 123.771C21.8902 122.655 21.4686 120.998 21.4686 118.872V90.0152C21.4686 88.0038 22.0495 86.7238 22.9919 85.9264C23.9586 85.1083 25.4395 84.6825 27.4702 84.6825Z" stroke="url(#paint6_linear_1_242)" stroke-width="1.5" style="mix-blend-mode:overlay"/>
<g opacity="0.158808" filter="url(#filter4_f_1_242)">
<path fill-rule="evenodd" clip-rule="evenodd" d="M41.2453 145.596C52.5817 145.596 67.2075 139.649 67.2075 132.313C67.2075 124.977 52.5817 119.03 41.2453 119.03C29.9089 119.03 16.1985 124.977 16.1985 132.313C16.1985 139.649 29.9089 145.596 41.2453 145.596Z" fill="#5D5D5D"/>
</g>
<path d="M42.203 109.897C43.2023 109.897 44.0792 109.675 44.834 109.232C45.5887 108.788 45.966 108.051 45.966 107.02C45.966 106.191 45.6684 105.56 45.0731 105.124C44.7287 104.875 44.2397 104.679 43.6062 104.535L42.2923 104.237C41.4079 104.034 40.8403 103.865 40.5894 103.73C40.2067 103.519 40.0154 103.185 40.0154 102.728C40.0154 102.314 40.1791 101.951 40.5065 101.638C40.8339 101.326 41.3718 101.169 42.1201 101.169C43.0471 101.169 43.704 101.412 44.0909 101.898C44.2993 102.164 44.4353 102.547 44.4991 103.045H45.6918C45.6918 102.01 45.3484 101.257 44.6618 100.786C43.9751 100.315 43.1406 100.079 42.1584 100.079C41.0911 100.079 40.2663 100.347 39.6837 100.884C39.1012 101.421 38.81 102.107 38.81 102.944C38.81 103.717 39.1076 104.298 39.7029 104.687C40.0473 104.911 40.6341 105.116 41.4632 105.302L42.7324 105.587C43.4212 105.743 43.9272 105.927 44.2504 106.138C44.5693 106.354 44.7287 106.715 44.7287 107.222C44.7287 107.898 44.3503 108.368 43.5934 108.629C43.2023 108.765 42.7686 108.832 42.2923 108.832C41.2293 108.832 40.4874 108.524 40.0664 107.907C39.8453 107.577 39.7199 107.148 39.6901 106.62H38.4974C38.4847 107.626 38.8078 108.422 39.4669 109.01C40.1259 109.601 41.038 109.897 42.203 109.897Z" fill="#7A7B80"/>
</g>
<path d="M89.4079 111.5H85.4054V99.1364H89.5347C90.7461 99.1364 91.7865 99.3839 92.6558 99.8789C93.5251 100.37 94.1912 101.076 94.654 101.998C95.1209 102.915 95.3543 104.016 95.3543 105.3C95.3543 106.588 95.1189 107.695 94.648 108.62C94.1811 109.546 93.505 110.258 92.6196 110.757C91.7341 111.252 90.6636 111.5 89.4079 111.5ZM87.2708 109.87H89.3053C90.247 109.87 91.0298 109.693 91.6537 109.339C92.2775 108.981 92.7443 108.463 93.0542 107.787C93.3641 107.107 93.5191 106.278 93.5191 105.3C93.5191 104.33 93.3641 103.507 93.0542 102.831C92.7484 102.155 92.2916 101.642 91.6838 101.292C91.0761 100.941 90.3215 100.766 89.42 100.766H87.2708V109.87ZM101.435 111.687C100.566 111.687 99.807 111.488 99.1591 111.089C98.5111 110.691 98.008 110.134 97.6498 109.417C97.2916 108.701 97.1125 107.864 97.1125 106.906C97.1125 105.944 97.2916 105.103 97.6498 104.382C98.008 103.662 98.5111 103.103 99.1591 102.704C99.807 102.306 100.566 102.107 101.435 102.107C102.304 102.107 103.063 102.306 103.711 102.704C104.359 103.103 104.862 103.662 105.22 104.382C105.578 105.103 105.757 105.944 105.757 106.906C105.757 107.864 105.578 108.701 105.22 109.417C104.862 110.134 104.359 110.691 103.711 111.089C103.063 111.488 102.304 111.687 101.435 111.687ZM101.441 110.172C102.004 110.172 102.471 110.023 102.842 109.725C103.212 109.427 103.486 109.031 103.663 108.536C103.844 108.041 103.934 107.496 103.934 106.9C103.934 106.308 103.844 105.765 103.663 105.27C103.486 104.771 103.212 104.37 102.842 104.069C102.471 103.767 102.004 103.616 101.441 103.616C100.874 103.616 100.403 103.767 100.028 104.069C99.6581 104.37 99.3824 104.771 99.2013 105.27C99.0242 105.765 98.9357 106.308 98.9357 106.9C98.9357 107.496 99.0242 108.041 99.2013 108.536C99.3824 109.031 99.6581 109.427 100.028 109.725C100.403 110.023 100.874 110.172 101.441 110.172ZM109.5 111.5L106.772 102.227H108.637L110.454 109.037H110.545L112.368 102.227H114.233L116.044 109.007H116.135L117.94 102.227H119.805L117.083 111.5H115.241L113.358 104.805H113.219L111.336 111.5H109.5ZM123.323 105.994V111.5H121.518V102.227H123.251V103.737H123.366C123.579 103.246 123.913 102.851 124.368 102.553C124.827 102.255 125.404 102.107 126.1 102.107C126.732 102.107 127.286 102.239 127.761 102.505C128.235 102.767 128.604 103.157 128.865 103.676C129.127 104.195 129.258 104.837 129.258 105.602V111.5H127.453V105.819C127.453 105.147 127.278 104.622 126.927 104.244C126.577 103.861 126.096 103.67 125.485 103.67C125.066 103.67 124.694 103.761 124.368 103.942C124.046 104.123 123.79 104.388 123.601 104.739C123.416 105.085 123.323 105.503 123.323 105.994Z" fill="white" fill-opacity="0.6"/>
<g filter="url(#filter5_ddd_1_242)">
<path fill-rule="evenodd" clip-rule="evenodd" d="M189.166 20.1663L219.212 20C222.693 20 226.047 22.5076 226.047 26.6415V57.3304C226.047 60.7769 223.048 63.5256 220.34 63.8047C220.154 63.8239 219.394 63.8047 219.212 63.8047L189.166 64C183.874 64 182.047 60.7748 182.047 56.0826V26.6415C182.047 22.0429 184.704 20.1663 189.166 20.1663Z" fill="url(#paint7_linear_1_242)" fill-opacity="0.5" shape-rendering="crispEdges"/>
</g>
<mask id="mask2_1_242" style="mask-type:alpha" maskUnits="userSpaceOnUse" x="182" y="20" width="45" height="44">
<path fill-rule="evenodd" clip-rule="evenodd" d="M189.166 20.1663L219.212 20C222.693 20 226.047 22.5076 226.047 26.6415V57.3304C226.047 60.7769 223.048 63.5256 220.34 63.8047C220.154 63.8239 219.394 63.8047 219.212 63.8047L189.166 64C183.874 64 182.047 60.7748 182.047 56.0826V26.6415C182.047 22.0429 184.704 20.1663 189.166 20.1663Z" fill="white"/>
</mask>
<g mask="url(#mask2_1_242)">
<path d="M189.47 21.6825L189.474 21.6825L219.045 21.5262C219.046 21.5262 219.046 21.5262 219.047 21.5262C222.019 21.5272 224.778 23.627 224.778 27.0152V57.0441C224.778 58.4375 224.165 59.7143 223.241 60.6834C222.312 61.6593 221.117 62.2699 220.039 62.3799C220.043 62.3795 220.033 62.3806 220.001 62.3816C219.972 62.3826 219.935 62.3833 219.891 62.3837C219.803 62.3844 219.697 62.3839 219.586 62.3828C219.491 62.3819 219.387 62.3803 219.295 62.379C219.186 62.3774 219.093 62.376 219.045 62.376L219.04 62.376L189.47 62.5595C189.469 62.5595 189.469 62.5595 189.468 62.5595C187.117 62.5591 185.675 61.8564 184.795 60.7714C183.89 59.6551 183.469 57.9984 183.469 55.8719V27.0152C183.469 25.0038 184.05 23.7238 184.992 22.9264C185.959 22.1083 187.44 21.6825 189.47 21.6825Z" fill="url(#paint8_linear_1_242)"/>
<path d="M189.47 21.6825L189.474 21.6825L219.045 21.5262C219.046 21.5262 219.046 21.5262 219.047 21.5262C222.019 21.5272 224.778 23.627 224.778 27.0152V57.0441C224.778 58.4375 224.165 59.7143 223.241 60.6834C222.312 61.6593 221.117 62.2699 220.039 62.3799C220.043 62.3795 220.033 62.3806 220.001 62.3816C219.972 62.3826 219.935 62.3833 219.891 62.3837C219.803 62.3844 219.697 62.3839 219.586 62.3828C219.491 62.3819 219.387 62.3803 219.295 62.379C219.186 62.3774 219.093 62.376 219.045 62.376L219.04 62.376L189.47 62.5595C189.469 62.5595 189.469 62.5595 189.468 62.5595C187.117 62.5591 185.675 61.8564 184.795 60.7714C183.89 59.6551 183.469 57.9984 183.469 55.8719V27.0152C183.469 25.0038 184.05 23.7238 184.992 22.9264C185.959 22.1083 187.44 21.6825 189.47 21.6825Z" stroke="url(#paint9_linear_1_242)" stroke-width="1.5" style="mix-blend-mode:overlay"/>
<g opacity="0.158808" filter="url(#filter6_f_1_242)">
<path fill-rule="evenodd" clip-rule="evenodd" d="M203.245 82.5962C214.582 82.5962 229.208 76.6492 229.208 69.3132C229.208 61.9772 214.582 56.0303 203.245 56.0303C191.909 56.0303 178.199 61.9772 178.199 69.3132C178.199 76.6492 191.909 82.5962 203.245 82.5962Z" fill="#5D5D5D"/>
</g>
<path fill-rule="evenodd" clip-rule="evenodd" d="M201.674 44.0627L200.646 46.9506H199.326L202.903 37.3091H204.359L207.807 46.9506H206.397L205.433 44.0627H201.674ZM202.043 42.9994H205.019L203.576 38.7398L202.043 42.9994Z" fill="#7A7B80"/>
</g>
<path d="M247.405 48.5V36.1364H249.271V46.8942H254.873V48.5H247.405ZM260.853 48.6871C259.939 48.6871 259.152 48.492 258.492 48.1016C257.836 47.7071 257.329 47.1538 256.971 46.4414C256.617 45.725 256.44 44.8859 256.44 43.924C256.44 42.9742 256.617 42.1371 256.971 41.4126C257.329 40.6882 257.828 40.1228 258.468 39.7163C259.112 39.3098 259.865 39.1065 260.726 39.1065C261.249 39.1065 261.756 39.1931 262.247 39.3661C262.738 39.5392 263.179 39.8108 263.569 40.1811C263.96 40.5514 264.268 41.0323 264.493 41.6239C264.718 42.2115 264.831 42.9259 264.831 43.767V44.407H257.46V43.0547H263.062C263.062 42.5798 262.966 42.1592 262.772 41.793C262.579 41.4227 262.308 41.1309 261.957 40.9176C261.611 40.7043 261.205 40.5977 260.738 40.5977C260.231 40.5977 259.788 40.7224 259.41 40.9719C259.036 41.2174 258.746 41.5394 258.541 41.9379C258.339 42.3323 258.239 42.7609 258.239 43.2237V44.2802C258.239 44.9 258.347 45.4272 258.565 45.8619C258.786 46.2965 259.094 46.6286 259.488 46.858C259.883 47.0833 260.344 47.196 260.871 47.196C261.213 47.196 261.525 47.1477 261.807 47.0511C262.088 46.9505 262.332 46.8016 262.537 46.6044C262.742 46.4072 262.899 46.1637 263.008 45.8739L264.716 46.1818C264.579 46.6849 264.334 47.1256 263.98 47.5039C263.63 47.8782 263.189 48.17 262.658 48.3793C262.131 48.5845 261.529 48.6871 260.853 48.6871ZM271.247 39.2273V40.6761H266.007V39.2273H271.247ZM267.444 48.5V38.1527C267.444 37.5732 267.57 37.0922 267.824 36.7099C268.077 36.3235 268.413 36.0357 268.832 35.8466C269.251 35.6534 269.705 35.5568 270.196 35.5568C270.559 35.5568 270.868 35.587 271.126 35.6474C271.384 35.7037 271.575 35.756 271.7 35.8043L271.277 37.2653C271.192 37.2411 271.084 37.2129 270.951 37.1808C270.818 37.1445 270.657 37.1264 270.468 37.1264C270.029 37.1264 269.715 37.2351 269.526 37.4524C269.341 37.6697 269.249 37.9837 269.249 38.3942V48.5H267.444ZM277.438 39.2273V40.6761H272.373V39.2273H277.438ZM273.731 37.0057H275.536V45.7773C275.536 46.1275 275.588 46.3911 275.693 46.5682C275.798 46.7412 275.932 46.86 276.097 46.9244C276.266 46.9847 276.45 47.0149 276.647 47.0149C276.792 47.0149 276.918 47.0049 277.027 46.9847C277.136 46.9646 277.22 46.9485 277.281 46.9364L277.607 48.4276C277.502 48.4678 277.353 48.508 277.16 48.5483C276.967 48.5926 276.725 48.6167 276.436 48.6207C275.961 48.6288 275.518 48.5443 275.107 48.3672C274.697 48.1901 274.365 47.9164 274.111 47.5462C273.858 47.1759 273.731 46.7111 273.731 46.1516V37.0057Z" fill="white" fill-opacity="0.6"/>
<g filter="url(#filter7_ddd_1_242)">
<path fill-rule="evenodd" clip-rule="evenodd" d="M189.166 83.1663L219.212 83C222.693 83 226.047 85.5076 226.047 89.6415V120.33C226.047 123.777 223.048 126.526 220.34 126.805C220.154 126.824 219.394 126.805 219.212 126.805L189.166 127C183.874 127 182.047 123.775 182.047 119.083V89.6415C182.047 85.0429 184.704 83.1663 189.166 83.1663Z" fill="url(#paint10_linear_1_242)" fill-opacity="0.5" shape-rendering="crispEdges"/>
</g>
<mask id="mask3_1_242" style="mask-type:alpha" maskUnits="userSpaceOnUse" x="182" y="83" width="45" height="44">
<path fill-rule="evenodd" clip-rule="evenodd" d="M189.166 83.1663L219.212 83C222.693 83 226.047 85.5076 226.047 89.6415V120.33C226.047 123.777 223.048 126.526 220.34 126.805C220.154 126.824 219.394 126.805 219.212 126.805L189.166 127C183.874 127 182.047 123.775 182.047 119.083V89.6415C182.047 85.0429 184.704 83.1663 189.166 83.1663Z" fill="white"/>
</mask>
<g mask="url(#mask3_1_242)">
<path d="M189.47 84.6825L189.474 84.6825L219.045 84.5262C219.046 84.5262 219.046 84.5262 219.047 84.5262C222.019 84.5272 224.778 86.627 224.778 90.0152V120.044C224.778 121.438 224.165 122.714 223.241 123.683C222.312 124.659 221.117 125.27 220.039 125.38C220.04 125.38 220.04 125.38 220.039 125.38C220.036 125.38 220.024 125.381 220.001 125.382C219.972 125.383 219.935 125.383 219.891 125.384C219.803 125.384 219.697 125.384 219.586 125.383C219.491 125.382 219.387 125.38 219.295 125.379C219.186 125.377 219.093 125.376 219.045 125.376L219.04 125.376L189.47 125.559C189.469 125.559 189.469 125.559 189.468 125.559C187.117 125.559 185.675 124.856 184.795 123.771C183.89 122.655 183.469 120.998 183.469 118.872V90.0152C183.469 88.0038 184.05 86.7238 184.992 85.9264C185.959 85.1083 187.44 84.6825 189.47 84.6825Z" fill="url(#paint11_linear_1_242)"/>
<path d="M189.47 84.6825L189.474 84.6825L219.045 84.5262C219.046 84.5262 219.046 84.5262 219.047 84.5262C222.019 84.5272 224.778 86.627 224.778 90.0152V120.044C224.778 121.438 224.165 122.714 223.241 123.683C222.312 124.659 221.117 125.27 220.039 125.38C220.04 125.38 220.04 125.38 220.039 125.38C220.036 125.38 220.024 125.381 220.001 125.382C219.972 125.383 219.935 125.383 219.891 125.384C219.803 125.384 219.697 125.384 219.586 125.383C219.491 125.382 219.387 125.38 219.295 125.379C219.186 125.377 219.093 125.376 219.045 125.376L219.04 125.376L189.47 125.559C189.469 125.559 189.469 125.559 189.468 125.559C187.117 125.559 185.675 124.856 184.795 123.771C183.89 122.655 183.469 120.998 183.469 118.872V90.0152C183.469 88.0038 184.05 86.7238 184.992 85.9264C185.959 85.1083 187.44 84.6825 189.47 84.6825Z" stroke="url(#paint12_linear_1_242)" stroke-width="1.5" style="mix-blend-mode:overlay"/>
<g opacity="0.158808" filter="url(#filter8_f_1_242)">
<path fill-rule="evenodd" clip-rule="evenodd" d="M203.245 145.596C214.582 145.596 229.208 139.649 229.208 132.313C229.208 124.977 214.582 119.03 203.245 119.03C191.909 119.03 178.199 124.977 178.199 132.313C178.199 139.649 191.909 145.596 203.245 145.596Z" fill="#5D5D5D"/>
</g>
<path fill-rule="evenodd" clip-rule="evenodd" d="M207.593 108.008C206.934 109.419 205.801 110.125 204.194 110.125H200.412V100.813H204.207C205.495 100.813 206.494 101.268 207.204 102.176C207.838 102.996 208.154 104.046 208.154 105.326C208.154 106.315 207.967 107.209 207.593 108.008ZM201.687 101.897V109.047H203.951C204.381 109.047 204.734 109.003 205.01 108.914C205.503 108.749 205.907 108.432 206.222 107.963C206.473 107.587 206.654 107.105 206.764 106.518C206.828 106.167 206.86 105.842 206.86 105.542C206.86 104.388 206.629 103.492 206.168 102.854C205.706 102.216 204.963 101.897 203.939 101.897H201.687Z" fill="#7A7B80"/>
</g>
<path d="M247.405 111.5V99.1364H251.812C252.77 99.1364 253.565 99.3014 254.197 99.6314C254.833 99.9614 255.308 100.418 255.622 101.002C255.936 101.581 256.093 102.251 256.093 103.012C256.093 103.769 255.934 104.435 255.616 105.01C255.302 105.582 254.827 106.027 254.191 106.344C253.559 106.662 252.764 106.821 251.806 106.821H248.468V105.216H251.637C252.241 105.216 252.732 105.129 253.11 104.956C253.493 104.783 253.772 104.531 253.949 104.201C254.127 103.871 254.215 103.475 254.215 103.012C254.215 102.545 254.125 102.141 253.943 101.799C253.766 101.457 253.487 101.195 253.104 101.014C252.726 100.829 252.229 100.736 251.613 100.736H249.271V111.5H247.405ZM253.509 105.922L256.563 111.5H254.438L251.444 105.922H253.509ZM258.218 111.5V102.227H260.023V111.5H258.218ZM259.129 100.797C258.815 100.797 258.546 100.692 258.32 100.483C258.099 100.269 257.988 100.016 257.988 99.7219C257.988 99.4241 258.099 99.1706 258.32 98.9613C258.546 98.748 258.815 98.6413 259.129 98.6413C259.443 98.6413 259.711 98.748 259.932 98.9613C260.157 99.1706 260.27 99.4241 260.27 99.7219C260.27 100.016 260.157 100.269 259.932 100.483C259.711 100.692 259.443 100.797 259.129 100.797ZM266.339 115.17C265.602 115.17 264.968 115.074 264.437 114.881C263.91 114.688 263.479 114.432 263.145 114.114C262.811 113.796 262.562 113.448 262.397 113.07L263.948 112.43C264.057 112.607 264.202 112.794 264.383 112.991C264.568 113.192 264.817 113.363 265.131 113.504C265.449 113.645 265.858 113.716 266.357 113.716C267.041 113.716 267.607 113.549 268.053 113.214C268.5 112.884 268.723 112.357 268.723 111.633V109.81H268.609C268.5 110.007 268.343 110.226 268.138 110.468C267.937 110.709 267.659 110.918 267.305 111.096C266.95 111.273 266.49 111.361 265.922 111.361C265.19 111.361 264.53 111.19 263.942 110.848C263.359 110.502 262.896 109.993 262.554 109.321C262.216 108.645 262.046 107.813 262.046 106.827C262.046 105.841 262.214 104.996 262.548 104.292C262.886 103.588 263.348 103.048 263.936 102.674C264.524 102.296 265.19 102.107 265.934 102.107C266.51 102.107 266.975 102.203 267.329 102.396C267.683 102.585 267.959 102.807 268.156 103.06C268.357 103.314 268.512 103.537 268.621 103.73H268.754V102.227H270.522V111.705C270.522 112.502 270.337 113.156 269.967 113.667C269.597 114.178 269.096 114.557 268.464 114.802C267.836 115.048 267.128 115.17 266.339 115.17ZM266.321 109.864C266.84 109.864 267.279 109.743 267.637 109.502C267.999 109.256 268.273 108.906 268.458 108.451C268.647 107.993 268.741 107.443 268.741 106.803C268.741 106.179 268.649 105.63 268.464 105.155C268.279 104.68 268.007 104.31 267.649 104.044C267.291 103.775 266.848 103.64 266.321 103.64C265.777 103.64 265.325 103.781 264.962 104.062C264.6 104.34 264.326 104.719 264.141 105.197C263.96 105.676 263.87 106.212 263.87 106.803C263.87 107.411 263.962 107.944 264.147 108.403C264.332 108.862 264.606 109.22 264.968 109.478C265.335 109.735 265.785 109.864 266.321 109.864ZM274.748 105.994V111.5H272.943V99.1364H274.724V103.737H274.839C275.056 103.237 275.388 102.841 275.835 102.547C276.282 102.253 276.865 102.107 277.586 102.107C278.221 102.107 278.777 102.237 279.252 102.499C279.731 102.761 280.101 103.151 280.363 103.67C280.628 104.185 280.761 104.829 280.761 105.602V111.5H278.956V105.819C278.956 105.139 278.781 104.612 278.431 104.238C278.081 103.859 277.594 103.67 276.97 103.67C276.543 103.67 276.161 103.761 275.823 103.942C275.489 104.123 275.225 104.388 275.032 104.739C274.843 105.085 274.748 105.503 274.748 105.994ZM287.498 102.227V103.676H282.433V102.227H287.498ZM283.792 100.006H285.597V108.777C285.597 109.127 285.649 109.391 285.754 109.568C285.858 109.741 285.993 109.86 286.158 109.924C286.327 109.985 286.51 110.015 286.707 110.015C286.852 110.015 286.979 110.005 287.088 109.985C287.196 109.965 287.281 109.949 287.341 109.936L287.667 111.428C287.563 111.468 287.414 111.508 287.221 111.548C287.027 111.593 286.786 111.617 286.496 111.621C286.021 111.629 285.578 111.544 285.168 111.367C284.757 111.19 284.425 110.916 284.172 110.546C283.918 110.176 283.792 109.711 283.792 109.152V100.006Z" fill="white" fill-opacity="0.6"/>
<g filter="url(#filter9_ddd_1_242)">
<rect x="20.0471" y="159" width="206" height="44" rx="10" fill="url(#paint13_linear_1_242)" fill-opacity="0.5" shape-rendering="crispEdges"/>
</g>
<mask id="mask4_1_242" style="mask-type:alpha" maskUnits="userSpaceOnUse" x="20" y="159" width="207" height="44">
<rect x="20.7971" y="159.75" width="204.5" height="42.5" rx="9.25" fill="url(#paint14_linear_1_242)"/>
<rect x="20.7971" y="159.75" width="204.5" height="42.5" rx="9.25" stroke="url(#paint15_linear_1_242)" stroke-width="1.5"/>
</mask>
<g mask="url(#mask4_1_242)">
<rect x="21.7971" y="160.75" width="202.5" height="40.5" rx="8.25" fill="url(#paint16_linear_1_242)"/>
<rect x="21.7971" y="160.75" width="202.5" height="40.5" rx="8.25" stroke="url(#paint17_linear_1_242)" stroke-width="1.5" style="mix-blend-mode:overlay"/>
<path d="M107.53 186.176C109.947 186.176 111.433 184.989 111.433 183.114V183.107C111.433 181.496 110.525 180.617 108.357 180.141L107.185 179.884C105.808 179.584 105.171 179.042 105.171 178.178V178.17C105.171 177.152 106.094 176.479 107.508 176.471C108.848 176.471 109.749 177.108 109.91 178.185L109.925 178.288H111.243L111.236 178.178C111.118 176.449 109.61 175.255 107.544 175.255C105.369 175.255 103.831 176.471 103.823 178.207V178.214C103.823 179.76 104.79 180.69 106.856 181.144L108.028 181.4C109.478 181.723 110.086 182.243 110.086 183.173V183.18C110.086 184.271 109.126 184.96 107.603 184.96C106.072 184.96 105.047 184.308 104.893 183.246L104.878 183.144H103.56L103.567 183.246C103.699 185.055 105.244 186.176 107.53 186.176Z" fill="#7A7B80"/>
<path d="M112.781 188.563H114.055V184.726H114.085C114.561 185.604 115.447 186.146 116.524 186.146C118.435 186.146 119.739 184.601 119.739 182.199V182.191C119.739 179.789 118.45 178.236 116.502 178.236C115.41 178.236 114.561 178.786 114.085 179.672H114.055V178.383H112.781V188.563ZM116.253 185.019C114.971 185.019 114.048 183.898 114.048 182.199V182.191C114.048 180.485 114.964 179.364 116.253 179.364C117.6 179.364 118.435 180.441 118.435 182.191V182.199C118.435 183.935 117.6 185.019 116.253 185.019Z" fill="#7A7B80"/>
<path d="M123.255 186.146C124.273 186.146 125.188 185.597 125.635 184.762H125.664V186H126.939V180.734C126.939 179.21 125.811 178.236 124.009 178.236C122.215 178.236 121.123 179.247 121.013 180.5L121.006 180.58H122.237L122.251 180.514C122.398 179.833 123.013 179.364 123.994 179.364C125.056 179.364 125.664 179.928 125.664 180.858V181.496L123.482 181.62C121.731 181.723 120.72 182.536 120.72 183.832V183.847C120.72 185.231 121.739 186.146 123.255 186.146ZM122.024 183.847V183.832C122.024 183.122 122.61 182.667 123.628 182.609L125.664 182.484V183.107C125.664 184.213 124.741 185.041 123.54 185.041C122.625 185.041 122.024 184.579 122.024 183.847Z" fill="#7A7B80"/>
<path d="M131.714 186.146C133.435 186.146 134.688 185.026 134.893 183.576L134.9 183.524H133.648L133.633 183.583C133.421 184.433 132.754 185.019 131.714 185.019C130.396 185.019 129.488 183.971 129.488 182.199V182.191C129.488 180.463 130.374 179.364 131.699 179.364C132.82 179.364 133.435 180.038 133.626 180.8L133.64 180.858H134.885L134.878 180.8C134.717 179.496 133.596 178.236 131.699 178.236C129.583 178.236 128.184 179.774 128.184 182.177V182.184C128.184 184.608 129.553 186.146 131.714 186.146Z" fill="#7A7B80"/>
<path d="M139.207 186.146C140.869 186.146 142.115 185.15 142.364 183.891L142.378 183.817H141.126L141.104 183.883C140.884 184.535 140.203 185.019 139.236 185.019C137.881 185.019 137.017 184.103 136.988 182.536H142.473V182.067C142.473 179.782 141.206 178.236 139.126 178.236C137.046 178.236 135.698 179.855 135.698 182.213V182.221C135.698 184.616 137.017 186.146 139.207 186.146ZM139.119 179.364C140.232 179.364 141.052 180.06 141.177 181.54H137.01C137.149 180.119 138.013 179.364 139.119 179.364Z" fill="#7A7B80"/>
</g>
<path d="M252.211 175.136H254.07V183.902C254.07 184.695 253.913 185.373 253.599 185.936C253.289 186.5 252.853 186.931 252.289 187.228C251.726 187.522 251.066 187.669 250.309 187.669C249.613 187.669 248.987 187.542 248.432 187.289C247.88 187.035 247.444 186.667 247.122 186.184C246.804 185.697 246.645 185.105 246.645 184.409H248.498C248.498 184.751 248.577 185.047 248.734 185.297C248.895 185.546 249.114 185.741 249.392 185.882C249.673 186.019 249.995 186.087 250.357 186.087C250.752 186.087 251.086 186.005 251.36 185.84C251.637 185.671 251.849 185.423 251.993 185.097C252.138 184.771 252.211 184.373 252.211 183.902V175.136ZM262.514 183.654V178.227H264.325V187.5H262.551V185.894H262.454C262.241 186.389 261.899 186.802 261.428 187.132C260.961 187.458 260.379 187.621 259.683 187.621C259.087 187.621 258.56 187.49 258.101 187.228C257.647 186.963 257.288 186.57 257.027 186.051C256.769 185.532 256.64 184.89 256.64 184.125V178.227H258.445V183.908C258.445 184.54 258.621 185.043 258.971 185.417C259.321 185.792 259.776 185.979 260.335 185.979C260.673 185.979 261.009 185.894 261.343 185.725C261.681 185.556 261.961 185.301 262.182 184.958C262.408 184.616 262.518 184.182 262.514 183.654ZM266.751 187.5V178.227H268.483V179.737H268.598C268.791 179.225 269.107 178.827 269.546 178.541C269.985 178.251 270.51 178.107 271.122 178.107C271.741 178.107 272.26 178.251 272.679 178.541C273.102 178.831 273.414 179.229 273.615 179.737H273.711C273.933 179.241 274.285 178.847 274.768 178.553C275.251 178.255 275.826 178.107 276.494 178.107C277.336 178.107 278.022 178.37 278.553 178.897C279.088 179.425 279.356 180.219 279.356 181.282V187.5H277.551V181.451C277.551 180.823 277.38 180.368 277.038 180.087C276.696 179.805 276.287 179.664 275.812 179.664C275.225 179.664 274.768 179.845 274.442 180.207C274.116 180.566 273.953 181.026 273.953 181.59V187.5H272.154V181.336C272.154 180.833 271.997 180.429 271.683 180.123C271.369 179.817 270.961 179.664 270.457 179.664C270.115 179.664 269.799 179.755 269.51 179.936C269.224 180.113 268.992 180.36 268.815 180.678C268.642 180.996 268.556 181.364 268.556 181.783V187.5H266.751ZM281.775 190.977V178.227H283.538V179.73H283.689C283.794 179.537 283.944 179.314 284.142 179.06C284.339 178.807 284.613 178.585 284.963 178.396C285.313 178.203 285.776 178.107 286.351 178.107C287.1 178.107 287.768 178.296 288.355 178.674C288.943 179.052 289.404 179.598 289.738 180.31C290.076 181.022 290.245 181.88 290.245 182.882C290.245 183.884 290.078 184.743 289.744 185.46C289.41 186.172 288.951 186.721 288.368 187.108C287.784 187.49 287.118 187.681 286.369 187.681C285.806 187.681 285.345 187.587 284.987 187.397C284.633 187.208 284.355 186.987 284.154 186.733C283.953 186.48 283.798 186.254 283.689 186.057H283.58V190.977H281.775ZM283.544 182.864C283.544 183.516 283.639 184.087 283.828 184.578C284.017 185.069 284.291 185.453 284.649 185.731C285.007 186.005 285.446 186.142 285.965 186.142C286.504 186.142 286.955 185.999 287.317 185.713C287.679 185.423 287.953 185.031 288.138 184.536C288.327 184.041 288.422 183.483 288.422 182.864C288.422 182.252 288.329 181.703 288.144 181.216C287.963 180.729 287.689 180.344 287.323 180.062C286.961 179.781 286.508 179.64 285.965 179.64C285.442 179.64 284.999 179.775 284.637 180.044C284.279 180.314 284.007 180.69 283.822 181.173C283.637 181.656 283.544 182.22 283.544 182.864Z" fill="white" fill-opacity="0.6"/>
<rect x="1.04712" y="1" width="324" height="221" rx="19" stroke="white" stroke-opacity="0.5" stroke-width="2"/>
</g>
<defs>
<filter id="filter0_i_1_242" x="0.0471191" y="0" width="326" height="227" filterUnits="userSpaceOnUse" color-interpolation-filters="sRGB">
<feFlood flood-opacity="0" result="BackgroundImageFix"/>
<feBlend mode="normal" in="SourceGraphic" in2="BackgroundImageFix" result="shape"/>
<feColorMatrix in="SourceAlpha" type="matrix" values="0 0 0 0 0 0 0 0 0 0 0 0 0 0 0 0 0 0 127 0" result="hardAlpha"/>
<feOffset dy="4"/>
<feGaussianBlur stdDeviation="2"/>
<feComposite in2="hardAlpha" operator="arithmetic" k2="-1" k3="1"/>
<feColorMatrix type="matrix" values="0 0 0 0 0 0 0 0 0 0 0 0 0 0 0 0 0 0 0.25 0"/>
<feBlend mode="normal" in2="shape" result="effect1_innerShadow_1_242"/>
</filter>
<filter id="filter1_ddd_1_242" x="6.04712" y="6" width="80" height="80" filterUnits="userSpaceOnUse" color-interpolation-filters="sRGB">
<feFlood flood-opacity="0" result="BackgroundImageFix"/>
<feColorMatrix in="SourceAlpha" type="matrix" values="0 0 0 0 0 0 0 0 0 0 0 0 0 0 0 0 0 0 127 0" result="hardAlpha"/>
<feOffset dx="4" dy="4"/>
<feGaussianBlur stdDeviation="9"/>
<feColorMatrix type="matrix" values="0 0 0 0 0 0 0 0 0 0 0 0 0 0 0 0 0 0 1 0"/>
<feBlend mode="overlay" in2="BackgroundImageFix" result="effect1_dropShadow_1_242"/>
<feColorMatrix in="SourceAlpha" type="matrix" values="0 0 0 0 0 0 0 0 0 0 0 0 0 0 0 0 0 0 127 0" result="hardAlpha"/>
<feOffset dy="1"/>
<feGaussianBlur stdDeviation="0.1"/>
<feColorMatrix type="matrix" values="0 0 0 0 1 0 0 0 0 1 0 0 0 0 1 0 0 0 0.2 0"/>
<feBlend mode="normal" in2="effect1_dropShadow_1_242" result="effect2_dropShadow_1_242"/>
<feColorMatrix in="SourceAlpha" type="matrix" values="0 0 0 0 0 0 0 0 0 0 0 0 0 0 0 0 0 0 127 0" result="hardAlpha"/>
<feOffset dx="-4" dy="-4"/>
<feGaussianBlur stdDeviation="5"/>
<feComposite in2="hardAlpha" operator="out"/>
<feColorMatrix type="matrix" values="0 0 0 0 1 0 0 0 0 1 0 0 0 0 1 0 0 0 0.5 0"/>
<feBlend mode="normal" in2="effect2_dropShadow_1_242" result="effect3_dropShadow_1_242"/>
<feBlend mode="normal" in="SourceGraphic" in2="effect3_dropShadow_1_242" result="shape"/>
</filter>
<filter id="filter2_f_1_242" x="-9.58388" y="30.2478" width="102.574" height="78.1307" filterUnits="userSpaceOnUse" color-interpolation-filters="sRGB">
<feFlood flood-opacity="0" result="BackgroundImageFix"/>
<feBlend mode="normal" in="SourceGraphic" in2="BackgroundImageFix" result="shape"/>
<feGaussianBlur stdDeviation="12.8912" result="effect1_foregroundBlur_1_242"/>
</filter>
<filter id="filter3_ddd_1_242" x="6.04712" y="69" width="80" height="80" filterUnits="userSpaceOnUse" color-interpolation-filters="sRGB">
<feFlood flood-opacity="0" result="BackgroundImageFix"/>
<feColorMatrix in="SourceAlpha" type="matrix" values="0 0 0 0 0 0 0 0 0 0 0 0 0 0 0 0 0 0 127 0" result="hardAlpha"/>
<feOffset dx="4" dy="4"/>
<feGaussianBlur stdDeviation="9"/>
<feColorMatrix type="matrix" values="0 0 0 0 0 0 0 0 0 0 0 0 0 0 0 0 0 0 1 0"/>
<feBlend mode="overlay" in2="BackgroundImageFix" result="effect1_dropShadow_1_242"/>
<feColorMatrix in="SourceAlpha" type="matrix" values="0 0 0 0 0 0 0 0 0 0 0 0 0 0 0 0 0 0 127 0" result="hardAlpha"/>
<feOffset dy="1"/>
<feGaussianBlur stdDeviation="0.1"/>
<feColorMatrix type="matrix" values="0 0 0 0 1 0 0 0 0 1 0 0 0 0 1 0 0 0 0.2 0"/>
<feBlend mode="normal" in2="effect1_dropShadow_1_242" result="effect2_dropShadow_1_242"/>
<feColorMatrix in="SourceAlpha" type="matrix" values="0 0 0 0 0 0 0 0 0 0 0 0 0 0 0 0 0 0 127 0" result="hardAlpha"/>
<feOffset dx="-4" dy="-4"/>
<feGaussianBlur stdDeviation="5"/>
<feComposite in2="hardAlpha" operator="out"/>
<feColorMatrix type="matrix" values="0 0 0 0 1 0 0 0 0 1 0 0 0 0 1 0 0 0 0.5 0"/>
<feBlend mode="normal" in2="effect2_dropShadow_1_242" result="effect3_dropShadow_1_242"/>
<feBlend mode="normal" in="SourceGraphic" in2="effect3_dropShadow_1_242" result="shape"/>
</filter>
<filter id="filter4_f_1_242" x="-9.58388" y="93.2478" width="102.574" height="78.1307" filterUnits="userSpaceOnUse" color-interpolation-filters="sRGB">
<feFlood flood-opacity="0" result="BackgroundImageFix"/>
<feBlend mode="normal" in="SourceGraphic" in2="BackgroundImageFix" result="shape"/>
<feGaussianBlur stdDeviation="12.8912" result="effect1_foregroundBlur_1_242"/>
</filter>
<filter id="filter5_ddd_1_242" x="168.047" y="6" width="80" height="80" filterUnits="userSpaceOnUse" color-interpolation-filters="sRGB">
<feFlood flood-opacity="0" result="BackgroundImageFix"/>
<feColorMatrix in="SourceAlpha" type="matrix" values="0 0 0 0 0 0 0 0 0 0 0 0 0 0 0 0 0 0 127 0" result="hardAlpha"/>
<feOffset dx="4" dy="4"/>
<feGaussianBlur stdDeviation="9"/>
<feColorMatrix type="matrix" values="0 0 0 0 0 0 0 0 0 0 0 0 0 0 0 0 0 0 1 0"/>
<feBlend mode="overlay" in2="BackgroundImageFix" result="effect1_dropShadow_1_242"/>
<feColorMatrix in="SourceAlpha" type="matrix" values="0 0 0 0 0 0 0 0 0 0 0 0 0 0 0 0 0 0 127 0" result="hardAlpha"/>
<feOffset dy="1"/>
<feGaussianBlur stdDeviation="0.1"/>
<feColorMatrix type="matrix" values="0 0 0 0 1 0 0 0 0 1 0 0 0 0 1 0 0 0 0.2 0"/>
<feBlend mode="normal" in2="effect1_dropShadow_1_242" result="effect2_dropShadow_1_242"/>
<feColorMatrix in="SourceAlpha" type="matrix" values="0 0 0 0 0 0 0 0 0 0 0 0 0 0 0 0 0 0 127 0" result="hardAlpha"/>
<feOffset dx="-4" dy="-4"/>
<feGaussianBlur stdDeviation="5"/>
<feComposite in2="hardAlpha" operator="out"/>
<feColorMatrix type="matrix" values="0 0 0 0 1 0 0 0 0 1 0 0 0 0 1 0 0 0 0.5 0"/>
<feBlend mode="normal" in2="effect2_dropShadow_1_242" result="effect3_dropShadow_1_242"/>
<feBlend mode="normal" in="SourceGraphic" in2="effect3_dropShadow_1_242" result="shape"/>
</filter>
<filter id="filter6_f_1_242" x="152.416" y="30.2478" width="102.574" height="78.1307" filterUnits="userSpaceOnUse" color-interpolation-filters="sRGB">
<feFlood flood-opacity="0" result="BackgroundImageFix"/>
<feBlend mode="normal" in="SourceGraphic" in2="BackgroundImageFix" result="shape"/>
<feGaussianBlur stdDeviation="12.8912" result="effect1_foregroundBlur_1_242"/>
</filter>
<filter id="filter7_ddd_1_242" x="168.047" y="69" width="80" height="80" filterUnits="userSpaceOnUse" color-interpolation-filters="sRGB">
<feFlood flood-opacity="0" result="BackgroundImageFix"/>
<feColorMatrix in="SourceAlpha" type="matrix" values="0 0 0 0 0 0 0 0 0 0 0 0 0 0 0 0 0 0 127 0" result="hardAlpha"/>
<feOffset dx="4" dy="4"/>
<feGaussianBlur stdDeviation="9"/>
<feColorMatrix type="matrix" values="0 0 0 0 0 0 0 0 0 0 0 0 0 0 0 0 0 0 1 0"/>
<feBlend mode="overlay" in2="BackgroundImageFix" result="effect1_dropShadow_1_242"/>
<feColorMatrix in="SourceAlpha" type="matrix" values="0 0 0 0 0 0 0 0 0 0 0 0 0 0 0 0 0 0 127 0" result="hardAlpha"/>
<feOffset dy="1"/>
<feGaussianBlur stdDeviation="0.1"/>
<feColorMatrix type="matrix" values="0 0 0 0 1 0 0 0 0 1 0 0 0 0 1 0 0 0 0.2 0"/>
<feBlend mode="normal" in2="effect1_dropShadow_1_242" result="effect2_dropShadow_1_242"/>
<feColorMatrix in="SourceAlpha" type="matrix" values="0 0 0 0 0 0 0 0 0 0 0 0 0 0 0 0 0 0 127 0" result="hardAlpha"/>
<feOffset dx="-4" dy="-4"/>
<feGaussianBlur stdDeviation="5"/>
<feComposite in2="hardAlpha" operator="out"/>
<feColorMatrix type="matrix" values="0 0 0 0 1 0 0 0 0 1 0 0 0 0 1 0 0 0 0.5 0"/>
<feBlend mode="normal" in2="effect2_dropShadow_1_242" result="effect3_dropShadow_1_242"/>
<feBlend mode="normal" in="SourceGraphic" in2="effect3_dropShadow_1_242" result="shape"/>
</filter>
<filter id="filter8_f_1_242" x="152.416" y="93.2478" width="102.574" height="78.1307" filterUnits="userSpaceOnUse" color-interpolation-filters="sRGB">
<feFlood flood-opacity="0" result="BackgroundImageFix"/>
<feBlend mode="normal" in="SourceGraphic" in2="BackgroundImageFix" result="shape"/>
<feGaussianBlur stdDeviation="12.8912" result="effect1_foregroundBlur_1_242"/>
</filter>
<filter id="filter9_ddd_1_242" x="6.04712" y="145" width="242" height="80" filterUnits="userSpaceOnUse" color-interpolation-filters="sRGB">
<feFlood flood-opacity="0" result="BackgroundImageFix"/>
<feColorMatrix in="SourceAlpha" type="matrix" values="0 0 0 0 0 0 0 0 0 0 0 0 0 0 0 0 0 0 127 0" result="hardAlpha"/>
<feOffset dx="4" dy="4"/>
<feGaussianBlur stdDeviation="9"/>
<feColorMatrix type="matrix" values="0 0 0 0 0 0 0 0 0 0 0 0 0 0 0 0 0 0 1 0"/>
<feBlend mode="overlay" in2="BackgroundImageFix" result="effect1_dropShadow_1_242"/>
<feColorMatrix in="SourceAlpha" type="matrix" values="0 0 0 0 0 0 0 0 0 0 0 0 0 0 0 0 0 0 127 0" result="hardAlpha"/>
<feOffset dy="1"/>
<feGaussianBlur stdDeviation="0.1"/>
<feColorMatrix type="matrix" values="0 0 0 0 1 0 0 0 0 1 0 0 0 0 1 0 0 0 0.2 0"/>
<feBlend mode="normal" in2="effect1_dropShadow_1_242" result="effect2_dropShadow_1_242"/>
<feColorMatrix in="SourceAlpha" type="matrix" values="0 0 0 0 0 0 0 0 0 0 0 0 0 0 0 0 0 0 127 0" result="hardAlpha"/>
<feOffset dx="-4" dy="-4"/>
<feGaussianBlur stdDeviation="5"/>
<feComposite in2="hardAlpha" operator="out"/>
<feColorMatrix type="matrix" values="0 0 0 0 1 0 0 0 0 1 0 0 0 0 1 0 0 0 0.5 0"/>
<feBlend mode="normal" in2="effect2_dropShadow_1_242" result="effect3_dropShadow_1_242"/>
<feBlend mode="normal" in="SourceGraphic" in2="effect3_dropShadow_1_242" result="shape"/>
</filter>
<linearGradient id="paint0_linear_1_242" x1="163.047" y1="0" x2="163.047" y2="223" gradientUnits="userSpaceOnUse">
<stop stop-color="#6624EB"/>
<stop offset="1" stop-color="#411D86" stop-opacity="0.44"/>
</linearGradient>
<linearGradient id="paint1_linear_1_242" x1="20.0471" y1="20" x2="20.0471" y2="64" gradientUnits="userSpaceOnUse">
<stop stop-color="#2E3132"/>
<stop offset="1" stop-color="#4A4E50"/>
</linearGradient>
<linearGradient id="paint2_linear_1_242" x1="20.7186" y1="20.7762" x2="20.7186" y2="63.3095" gradientUnits="userSpaceOnUse">
<stop stop-color="#B8B8B8"/>
<stop offset="1" stop-color="#F4F7FA"/>
</linearGradient>
<linearGradient id="paint3_linear_1_242" x1="42.1232" y1="20.7762" x2="42.1232" y2="63.3095" gradientUnits="userSpaceOnUse">
<stop stop-color="white"/>
<stop offset="1"/>
</linearGradient>
<linearGradient id="paint4_linear_1_242" x1="20.0471" y1="83" x2="20.0471" y2="127" gradientUnits="userSpaceOnUse">
<stop stop-color="#2E3132"/>
<stop offset="1" stop-color="#4A4E50"/>
</linearGradient>
<linearGradient id="paint5_linear_1_242" x1="20.7186" y1="83.7762" x2="20.7186" y2="126.309" gradientUnits="userSpaceOnUse">
<stop stop-color="#B4B4B5"/>
<stop offset="1" stop-color="#F4F7FA"/>
</linearGradient>
<linearGradient id="paint6_linear_1_242" x1="42.1232" y1="83.7762" x2="42.1232" y2="126.309" gradientUnits="userSpaceOnUse">
<stop stop-color="white"/>
<stop offset="1"/>
</linearGradient>
<linearGradient id="paint7_linear_1_242" x1="182.047" y1="20" x2="182.047" y2="64" gradientUnits="userSpaceOnUse">
<stop stop-color="#2E3132"/>
<stop offset="1" stop-color="#4A4E50"/>
</linearGradient>
<linearGradient id="paint8_linear_1_242" x1="182.719" y1="20.7762" x2="182.719" y2="63.3095" gradientUnits="userSpaceOnUse">
<stop stop-color="#A7A7A7"/>
<stop offset="1" stop-color="#F4F7FA"/>
</linearGradient>
<linearGradient id="paint9_linear_1_242" x1="204.123" y1="20.7762" x2="204.123" y2="63.3095" gradientUnits="userSpaceOnUse">
<stop stop-color="white"/>
<stop offset="1"/>
</linearGradient>
<linearGradient id="paint10_linear_1_242" x1="182.047" y1="83" x2="182.047" y2="127" gradientUnits="userSpaceOnUse">
<stop stop-color="#2E3132"/>
<stop offset="1" stop-color="#4A4E50"/>
</linearGradient>
<linearGradient id="paint11_linear_1_242" x1="182.719" y1="83.7762" x2="182.719" y2="126.309" gradientUnits="userSpaceOnUse">
<stop stop-color="#B2B3B4"/>
<stop offset="1" stop-color="#E9E9E9"/>
</linearGradient>
<linearGradient id="paint12_linear_1_242" x1="204.123" y1="83.7762" x2="204.123" y2="126.309" gradientUnits="userSpaceOnUse">
<stop stop-color="white"/>
<stop offset="1"/>
</linearGradient>
<linearGradient id="paint13_linear_1_242" x1="20.0471" y1="159" x2="20.0471" y2="203" gradientUnits="userSpaceOnUse">
<stop stop-color="#2E3132"/>
<stop offset="1" stop-color="#4A4E50"/>
</linearGradient>
<linearGradient id="paint14_linear_1_242" x1="20.0471" y1="159" x2="20.0471" y2="203" gradientUnits="userSpaceOnUse">
<stop stop-color="#E1E4E6"/>
<stop offset="1" stop-color="#F4F7FA"/>
</linearGradient>
<linearGradient id="paint15_linear_1_242" x1="123.047" y1="159" x2="123.047" y2="203" gradientUnits="userSpaceOnUse">
<stop stop-color="white"/>
<stop offset="1"/>
</linearGradient>
<linearGradient id="paint16_linear_1_242" x1="21.0471" y1="160" x2="21.0471" y2="202" gradientUnits="userSpaceOnUse">
<stop stop-color="#B7B5B5"/>
<stop offset="1" stop-color="#D1D1D1"/>
</linearGradient>
<linearGradient id="paint17_linear_1_242" x1="123.047" y1="160" x2="123.047" y2="202" gradientUnits="userSpaceOnUse">
<stop stop-color="white"/>
<stop offset="1"/>
</linearGradient>
</defs>
</svg>
